<?xml version="1.0" encoding="UTF-8" standalone="no"?>
<svg
   xmlns:dc="http://purl.org/dc/elements/1.1/"
   xmlns:cc="http://creativecommons.org/ns#"
   xmlns:rdf="http://www.w3.org/1999/02/22-rdf-syntax-ns#"
   xmlns:svg="http://www.w3.org/2000/svg"
   xmlns="http://www.w3.org/2000/svg"
   xmlns:sodipodi="http://sodipodi.sourceforge.net/DTD/sodipodi-0.dtd"
   xmlns:inkscape="http://www.inkscape.org/namespaces/inkscape"
   width="190.22072"
   height="157.0154"
   viewBox="18 268 190.22072 157.0154"
   id="svg2"
   version="1.1"
   inkscape:version="0.48.2 r9819"
   sodipodi:docname="Logo_Blender_border_notext.svg">
  <metadata
     id="metadata48">
    <rdf:RDF>
      <cc:Work
         rdf:about="">
        <dc:format>image/svg+xml</dc:format>
        <dc:type
           rdf:resource="http://purl.org/dc/dcmitype/StillImage" />
        <dc:title>Blender Logo with border and no text</dc:title>
      </cc:Work>
    </rdf:RDF>
  </metadata>
  <defs
     id="defs46" />
  <sodipodi:namedview
     pagecolor="#000000"
     bordercolor="#666666"
     borderopacity="1"
     objecttolerance="10"
     gridtolerance="10"
     guidetolerance="10"
     inkscape:pageopacity="0"
     inkscape:pageshadow="2"
     inkscape:window-width="1563"
     inkscape:window-height="968"
     id="namedview44"
     showgrid="true"
     fit-margin-top="0"
     fit-margin-left="0"
     fit-margin-right="0"
     fit-margin-bottom="0"
     inkscape:zoom="4.231884"
     inkscape:cx="80.261035"
     inkscape:cy="76.48121"
     inkscape:window-x="192"
     inkscape:window-y="29"
     inkscape:window-maximized="0"
     inkscape:current-layer="g6"
     showguides="false"
     inkscape:snap-from-guide="false">
    <inkscape:grid
       type="xygrid"
       id="grid2991"
       empspacing="5"
       visible="true"
       enabled="true"
       snapvisiblegridlinesonly="true" />
  </sodipodi:namedview>
  <title
     id="title4">Blender Logo with border and no text</title>
  <!-- generated by pstoedit version:3.50 -->
  <g
     xml:space="preserve"
     id="g6"
     transform="translate(4.0096651,6.1967633)">
<g
   style="fill:#ff7021;fill-rule:nonzero;stroke:#ffffff;stroke-width:13.29300022000000000;stroke-linecap:butt;stroke-linejoin:round;stroke-miterlimit:4;stroke-opacity:1;stroke-dasharray:none"
   id="g3939"
   stroke-miterlimit="4">
	<path
   style="font-size:medium;font-style:normal;font-variant:normal;font-weight:normal;font-stretch:normal;text-indent:0;text-align:start;text-decoration:none;line-height:normal;letter-spacing:normal;word-spacing:normal;text-transform:none;direction:ltr;block-progression:tb;writing-mode:lr-tb;text-anchor:start;baseline-shift:baseline;color:#000000;fill:#ffffff;fill-opacity:1;stroke:none;stroke-width:13.29300022;marker:none;visibility:visible;display:inline;overflow:visible;enable-background:accumulate;font-family:Sans;-inkscape-font-specification:Sans"
   d="m 113.8125,261.59375 c -3.74664,0.007 -7.52425,1.20487 -10.8125,3.5 -0.008,0.005 -0.0234,-0.005 -0.0312,0 l 0,0.0312 c -3.312244,2.32957 -5.724819,5.91469 -6.09375,10 -0.317457,3.51532 1.1297,7.05473 3.5625,9.6875 -2e-5,0.0104 -2e-5,0.0208 0,0.0312 0.34686,0.47874 0.75794,0.9109 1.21875,1.28125 0.0104,0.0104 0.0208,0.0208 0.0312,0.0312 l 8.53125,6.96875 -51.5625,0.0312 -0.09375,0 c -8.715459,0.006 -16.936516,4.96648 -18.96875,13.78125 -2.4e-5,0.0104 -2.4e-5,0.0208 0,0.0312 -1.033675,4.49309 0.421722,9.3586 3.46875,12.46875 2.740914,2.79769 6.497157,4.24107 10.5,4.53125 0.451239,0.0997 0.912898,0.15215 1.375,0.15625 l 15.96875,-0.0312 -47.96875,36.8125 c -0.03143,0.0206 -0.06268,0.0414 -0.09375,0.0625 0.108817,-0.0863 -0.0586,0.0503 -0.15625,0.125 -0.05493,0.0421 0.02456,-0.0314 -0.09375,0.0625 -4.082955,3.1594 -6.910593,7.36597 -8.0625,12.03125 -1.160355,4.6995 -0.459986,10.12194 2.8125,14.3125 6.64286,8.50965 19.112849,7.82371 27.4375,1.09375 0.01045,-0.0104 0.02087,-0.0208 0.03125,-0.0312 l 24.375,-19.9375 c 0.341563,1.60887 0.677444,3.21796 1.1875,4.84375 2.611305,8.34348 7.055055,16.08197 13.15625,22.8125 6.254669,6.90627 13.961243,12.442 22.78125,16.34375 9.27039,4.10829 19.30674,6.20831 29.65625,6.1875 10.35184,-0.0175 20.42306,-2.15026 29.6875,-6.28125 8.7986,-3.93862 16.49915,-9.4815 22.75,-16.40625 6.08717,-6.75192 10.51217,-14.50383 13.125,-22.84375 1.32472,-4.22424 2.15996,-8.53286 2.5,-12.84375 0.33116,-4.24749 0.19052,-8.49192 -0.40625,-12.71875 2e-5,-0.0104 2e-5,-0.0208 0,-0.0312 -1.17313,-8.24678 -4.0358,-16.03528 -8.40625,-23.0625 -3.76678,-6.05649 -8.62764,-11.3169 -14.21875,-15.84375 -0.023,-0.0186 -0.0395,-0.0439 -0.0625,-0.0625 -0.29165,-0.33335 -0.61672,-0.63745 -0.96875,-0.90625 L 125,265.625 c -0.0491,-0.0427 -0.0564,-0.0622 -0.0937,-0.0937 l -0.15625,-0.125 c -0.0208,-0.0105 -0.0416,-0.0209 -0.0625,-0.0312 -0.0515,-0.0424 -0.10354,-0.0841 -0.15625,-0.125 -3.24407,-2.47699 -6.96317,-3.66347 -10.71875,-3.65625 z"
   id="path3941"
   inkscape:connector-curvature="0"
   sodipodi:nodetypes="ccccscccccccccscccccccsccccccccccccccscccccccccc" />
</g><g
   stroke-miterlimit="4"
   id="g8"
   style="fill:#003aa8;fill-rule:nonzero;stroke-width:0;stroke-linecap:butt;stroke-linejoin:miter;stroke-miterlimit:4">
	<path
   d="m 112.871,349.254 c 0.328,-5.895 3.219,-11.094 7.574,-14.781 l 0,0 c 4.278,-3.621 10.032,-5.828 16.309,-5.832 l 0,0 c 6.277,0.004 12.031,2.211 16.309,5.832 l 0,0 c 4.355,3.687 7.246,8.886 7.578,14.781 0.332,6.062 -2.102,11.699 -6.379,15.871 l 0,0 c -4.356,4.246 -10.563,6.914 -17.504,6.914 l 0,0 c -6.945,0 -13.156,-2.668 -17.516,-6.914 l 0,0 c -4.273,-4.172 -6.707,-9.809 -6.371,-15.871 z"
   id="path10"
   inkscape:connector-curvature="0" />
</g>
<g
   stroke-miterlimit="4"
   id="g12"
   style="fill:#ff7021;fill-rule:nonzero;stroke-width:0;stroke-linecap:butt;stroke-linejoin:miter;stroke-miterlimit:4">
	<path
   d="m 74.8281,361.191 c 0.0391,2.301 0.7813,6.786 1.8828,10.297 l 0,0 c 2.3204,7.414 6.2579,14.278 11.7422,20.328 l 0,0 c 5.625,6.211 12.5429,11.207 20.5429,14.746 l 0,0 c 8.41,3.727 17.524,5.629 26.973,5.61 l 0,0 c 9.453,-0.016 18.562,-1.949 26.972,-5.699 l 0,0 c 7.993,-3.578 14.911,-8.586 20.532,-14.813 l 0,0 c 5.476,-6.074 9.406,-12.949 11.73,-20.367 l 0,0 c 1.176,-3.75 1.906,-7.551 2.207,-11.367 l 0,0 c 0.293,-3.758 0.168,-7.528 -0.363,-11.289 l 0,0 c -1.043,-7.332 -3.582,-14.215 -7.484,-20.489 -3.583,-5.761 -8.184,-10.808 -13.661,-15.058 l 0,0 0.008,-0.008 0,0 -55.262,-42.437 0,0 c -0.046,-0.04 -0.093,-0.079 -0.14,-0.118 l 0,0 c -3.637,-2.777 -9.731,-2.769 -13.715,0.02 l 0,0 c -4.039,2.824 -4.492,7.484 -0.91,10.433 l 0,0 -0.012,0.008 0,0 23.051,18.75 -70.2657,0.074 0,0 c -0.0313,0 -0.0625,0 -0.0977,0 l 0,0 c -5.8047,0.004 -11.3828,3.821 -12.4922,8.633 l 0,0 c -1.1289,4.907 2.8164,8.973 8.8516,8.996 l 0,0 -0.0078,0.024 0,0 35.6132,-0.07 -63.5546,48.777 0,0 c -0.0782,0.062 -0.1641,0.121 -0.2422,0.183 l 0,0 c -5.9883,4.59 -7.9297,12.227 -4.1563,17.059 l 0,0 c 3.836,4.914 11.9805,4.918 18.0391,0.02 l 0,0 34.6836,-28.379 c 0,0 -0.5039,3.832 -0.4649,6.136 z m 89.1209,12.825 c -7.144,7.289 -17.144,11.414 -27.976,11.433 l 0,0 c -10.836,0.02 -20.84,-4.074 -27.989,-11.344 l 0,0 c -3.492,-3.546 -6.058,-7.613 -7.644,-11.96 l 0,0 c -1.547,-4.266 -2.1525,-8.79 -1.7541,-13.356 l 0,0 c 0.3868,-4.469 1.7031,-8.727 3.8321,-12.582 l 0,0 c 2.09,-3.789 4.961,-7.211 8.504,-10.109 l 0,0 c 6.945,-5.664 15.785,-8.727 25.043,-8.739 l 0,0 c 9.258,-0.011 18.094,3.028 25.043,8.668 l 0,0 c 3.539,2.883 6.41,6.293 8.496,10.075 l 0,0 c 2.129,3.851 3.449,8.101 3.84,12.57 l 0,0 c 0.394,4.566 -0.207,9.09 -1.758,13.359 l 0,0 c -1.582,4.352 -4.145,8.426 -7.637,11.985 z"
   id="path14"
   inkscape:connector-curvature="0" />
</g>







</g></svg>
